<svg width="53" height="54" viewBox="0 0 53 54" fill="none" xmlns="http://www.w3.org/2000/svg">
<path d="M27.022 39.4462C33.9434 39.4462 39.5542 33.8738 39.5542 26.9999C39.5542 20.126 33.9434 14.5536 27.022 14.5536C20.1006 14.5536 14.4897 20.126 14.4897 26.9999C14.4897 33.8738 20.1006 39.4462 27.022 39.4462Z" fill="#8A8EF6"/>
<path d="M27.0219 16.2826C29.1562 16.2826 31.2426 16.9112 33.0172 18.0888C34.7918 19.2664 36.175 20.9402 36.9917 22.8986C37.8085 24.8569 38.0222 27.0118 37.6058 29.0907C37.1894 31.1697 36.1617 33.0793 34.6525 34.5782C33.1433 36.077 31.2205 37.0977 29.1272 37.5113C27.0339 37.9248 24.8641 37.7126 22.8922 36.9014C20.9204 36.0902 19.235 34.7166 18.0493 32.9541C16.8635 31.1917 16.2306 29.1196 16.2306 26.9999C16.2306 24.1575 17.3675 21.4315 19.3913 19.4216C21.4151 17.4117 24.1599 16.2826 27.0219 16.2826ZM27.0219 12.8245C24.1985 12.8224 21.4378 13.652 19.0892 15.2083C16.7405 16.7646 14.9094 18.9777 13.8274 21.5677C12.7454 24.1578 12.4612 27.0083 13.0107 29.7587C13.5602 32.5092 14.9188 35.036 16.9145 37.0196C18.9102 39.0031 21.4534 40.3543 24.2224 40.9021C26.9915 41.4499 29.8619 41.1698 32.4706 40.0973C35.0793 39.0247 37.3091 37.2078 38.878 34.8764C40.4468 32.5451 41.2842 29.804 41.2842 26.9999C41.2821 23.2421 39.7793 19.6386 37.1056 16.9797C34.432 14.3208 30.8056 12.8236 27.0219 12.8164V12.8245Z" fill="white"/>
<path d="M27.188 53.9998C22.6677 54.0001 18.2187 52.881 14.2436 50.7437C10.2685 48.6065 6.89263 45.5186 4.42161 41.7595C1.95059 38.0003 0.462368 33.6886 0.0916091 29.2145C-0.27915 24.7403 0.47926 20.245 2.29821 16.1352C4.11715 12.0254 6.93922 8.43095 10.5091 5.67704C14.0789 2.92312 18.2838 1.09669 22.7433 0.363014C27.2028 -0.370661 31.7761 0.0115725 36.0494 1.47514C40.3227 2.9387 44.1611 5.4374 47.2173 8.74512C47.3789 8.91096 47.5055 9.10726 47.5895 9.32244C47.6735 9.53762 47.7133 9.76733 47.7065 9.99802C47.6998 10.2287 47.6465 10.4557 47.55 10.6657C47.4535 10.8756 47.3156 11.0643 47.1446 11.2205C46.9735 11.3767 46.7726 11.4973 46.5539 11.5752C46.3351 11.6531 46.1029 11.6867 45.8709 11.674C45.6388 11.6614 45.4117 11.6027 45.2028 11.5015C44.994 11.4003 44.8076 11.2586 44.6548 11.0847C41.9903 8.20037 38.6437 6.02138 34.9177 4.74494C31.1918 3.46849 27.2043 3.13486 23.3158 3.77426C19.4274 4.41366 15.7609 6.00589 12.648 8.40687C9.53521 10.8079 7.07432 13.9418 5.48806 17.5251C3.9018 21.1084 3.24024 25.028 3.56324 28.9292C3.88624 32.8304 5.18361 36.59 7.33795 39.8678C9.4923 43.1457 12.4356 45.8383 15.9015 47.702C19.3675 49.5657 23.2466 50.5418 27.188 50.5417C30.412 50.5544 33.6041 49.9078 36.5656 48.6422C39.5271 47.3766 42.1945 45.519 44.4018 43.1852C44.5574 43.0141 44.7458 42.8755 44.9561 42.7777C45.1663 42.6799 45.3942 42.6249 45.6262 42.6159C45.8582 42.6069 46.0896 42.644 46.3069 42.7251C46.5243 42.8063 46.7231 42.9297 46.8916 43.0883C47.0602 43.2469 47.1951 43.4374 47.2884 43.6485C47.3818 43.8596 47.4316 44.0871 47.4351 44.3177C47.4386 44.5482 47.3956 44.7772 47.3087 44.991C47.2218 45.2048 47.0926 45.3992 46.9289 45.5627C44.3974 48.2389 41.3383 50.3691 37.9421 51.8206C34.5459 53.2721 30.8853 54.0139 27.188 53.9998Z" fill="white"/>
<path d="M45.6558 40.1541C44.7088 40.1541 43.783 40.433 42.9957 40.9556C42.2083 41.4782 41.5946 42.2209 41.2323 43.0899C40.8701 43.9589 40.7754 44.9151 40.9604 45.8375C41.1453 46.7599 41.6016 47.6072 42.2714 48.272C42.9412 48.9369 43.7946 49.3896 44.7235 49.5727C45.6524 49.7559 46.6151 49.6613 47.4899 49.301C48.3646 48.9407 49.1122 48.3309 49.6379 47.5486C50.1637 46.7663 50.444 45.8467 50.4435 44.9062C50.4428 43.6456 49.938 42.4369 49.0402 41.5458C48.1425 40.6546 46.9251 40.1541 45.6558 40.1541Z" fill="#8A8EF6"/>
<path d="M45.6558 51.3873C44.3646 51.3873 43.1023 51.0071 42.0287 50.2946C40.9551 49.5822 40.1183 48.5695 39.6242 47.3848C39.13 46.2 39.0007 44.8963 39.2526 43.6385C39.5046 42.3808 40.1263 41.2255 41.0394 40.3187C41.9524 39.4119 43.1157 38.7944 44.3821 38.5442C45.6486 38.294 46.9613 38.4224 48.1542 38.9132C49.3472 39.4039 50.3668 40.235 51.0842 41.3013C51.8015 42.3675 52.1844 43.6211 52.1844 44.9035C52.1844 46.6231 51.4966 48.2723 50.2723 49.4883C49.0479 50.7042 47.3873 51.3873 45.6558 51.3873ZM45.6558 41.8831C45.0531 41.8831 44.464 42.0606 43.9629 42.3932C43.4618 42.7258 43.0713 43.1985 42.8408 43.7516C42.6103 44.3046 42.5501 44.9132 42.6679 45.5002C42.7857 46.0872 43.0761 46.6263 43.5025 47.0494C43.9288 47.4725 44.4719 47.7604 45.0631 47.8769C45.6543 47.9933 46.267 47.933 46.8236 47.7036C47.3803 47.4742 47.8559 47.0859 48.1904 46.588C48.5248 46.09 48.703 45.5048 48.7025 44.9062C48.7018 44.1042 48.3805 43.3352 47.8092 42.7684C47.2379 42.2015 46.4634 41.8831 45.6558 41.8831Z" fill="white"/>
</svg>
