<svg width="640" height="444" viewBox="0 0 640 444" fill="none" xmlns="http://www.w3.org/2000/svg">
<path d="M56.1318 356.691C56.1318 346.416 54.8133 339.023 52.1762 334.512C49.6647 329.876 44.8929 327.558 37.8607 327.558C35.3492 327.558 32.5866 327.746 29.5728 328.122C26.559 328.498 24.2987 328.811 22.7918 329.062V408.378H0V313.274C4.39511 312.021 10.1087 310.83 17.1409 309.702C24.2987 308.575 31.8331 308.011 39.7443 308.011C46.5253 308.011 52.0506 308.888 56.3202 310.642C60.7153 312.396 64.3569 314.715 67.2451 317.596C68.6264 316.594 70.3845 315.529 72.5192 314.401C74.654 313.274 77.0399 312.271 79.677 311.394C82.3141 310.392 85.0767 309.577 87.9649 308.951C90.9787 308.324 93.9925 308.011 97.0063 308.011C104.666 308.011 110.945 309.139 115.842 311.394C120.865 313.524 124.758 316.594 127.521 320.604C130.409 324.488 132.355 329.25 133.36 334.888C134.49 340.402 135.055 346.479 135.055 353.12V408.378H112.264V356.691C112.264 346.416 111.008 339.023 108.496 334.512C105.985 329.876 101.15 327.558 93.9925 327.558C90.3508 327.558 86.8975 328.185 83.6326 329.438C80.3677 330.565 77.919 331.693 76.2865 332.821C77.2911 335.953 77.9817 339.274 78.3585 342.782C78.7352 346.291 78.9235 350.05 78.9235 354.06V408.378H56.1318V356.691Z" fill="white"/>
<path d="M240.464 310.078C230.293 347.419 218.489 381.25 205.052 411.574C202.541 417.212 199.967 422.036 197.329 426.046C194.692 430.056 191.741 433.376 188.476 436.008C185.212 438.639 181.57 440.519 177.552 441.646C173.533 442.899 168.887 443.526 163.613 443.526C160.097 443.526 156.581 443.15 153.064 442.398C149.674 441.646 147.1 440.832 145.342 439.955L149.486 421.723C154.006 423.477 158.464 424.355 162.859 424.355C168.761 424.355 173.345 422.914 176.61 420.032C180 417.275 182.951 412.952 185.463 407.063C178.305 393.279 171.398 378.243 164.743 361.954C158.213 345.664 152.374 328.373 147.225 310.078H171.524C172.78 315.341 174.287 321.042 176.045 327.182C177.928 333.322 179.937 339.587 182.072 345.978C184.207 352.243 186.467 358.508 188.853 364.773C191.239 371.038 193.625 376.865 196.011 382.253C200.029 371.101 203.797 359.26 207.313 346.729C210.829 334.074 214.031 321.857 216.919 310.078H240.464Z" fill="white"/>
<path d="M275.604 358.946C275.604 368.971 277.99 376.865 282.762 382.629C287.534 388.267 294.126 391.087 302.54 391.087C306.181 391.087 309.258 390.961 311.77 390.711C314.407 390.335 316.541 389.959 318.174 389.583V333.197C316.165 331.818 313.465 330.565 310.074 329.438C306.809 328.185 303.293 327.558 299.526 327.558C291.238 327.558 285.148 330.377 281.255 336.016C277.488 341.655 275.604 349.298 275.604 358.946ZM340.966 405.371C336.445 406.749 330.731 408.003 323.825 409.13C317.044 410.258 309.886 410.822 302.351 410.822C294.566 410.822 287.596 409.631 281.443 407.251C275.29 404.87 270.016 401.487 265.621 397.101C261.351 392.59 258.024 387.202 255.638 380.937C253.377 374.547 252.247 367.404 252.247 359.51C252.247 351.742 253.189 344.725 255.073 338.459C257.082 332.069 259.97 326.618 263.737 322.107C267.504 317.596 272.088 314.151 277.488 311.77C282.887 309.264 289.103 308.011 296.135 308.011C300.907 308.011 305.114 308.575 308.756 309.702C312.397 310.83 315.537 312.083 318.174 313.461V266.285L340.966 262.526V405.371Z" fill="white"/>
<path d="M404.576 392.402C411.608 392.402 416.945 392.026 420.587 391.275V366.089C419.331 365.713 417.51 365.337 415.124 364.961C412.738 364.585 410.101 364.397 407.213 364.397C404.701 364.397 402.127 364.585 399.49 364.961C396.979 365.337 394.656 366.026 392.521 367.028C390.512 368.031 388.879 369.472 387.623 371.351C386.368 373.106 385.74 375.361 385.74 378.118C385.74 383.506 387.435 387.265 390.826 389.395C394.216 391.4 398.799 392.402 404.576 392.402ZM402.692 307.635C410.227 307.635 416.568 308.575 421.717 310.454C426.865 312.334 430.947 314.965 433.96 318.348C437.1 321.731 439.297 325.866 440.553 330.753C441.934 335.515 442.625 340.778 442.625 346.541V406.123C439.109 406.875 433.772 407.752 426.614 408.754C419.582 409.882 411.608 410.446 402.692 410.446C396.79 410.446 391.391 409.882 386.493 408.754C381.596 407.627 377.389 405.81 373.873 403.304C370.482 400.798 367.783 397.54 365.773 393.53C363.89 389.52 362.948 384.571 362.948 378.682C362.948 373.043 364.015 368.281 366.15 364.397C368.41 360.513 371.424 357.38 375.191 354.999C378.959 352.493 383.291 350.739 388.188 349.737C393.211 348.609 398.423 348.045 403.822 348.045C406.334 348.045 408.971 348.233 411.734 348.609C414.496 348.86 417.447 349.361 420.587 350.113V346.353C420.587 343.722 420.273 341.216 419.645 338.835C419.017 336.455 417.887 334.387 416.254 332.633C414.747 330.753 412.675 329.312 410.038 328.31C407.527 327.307 404.325 326.806 400.432 326.806C395.158 326.806 390.323 327.182 385.928 327.934C381.533 328.686 377.954 329.563 375.191 330.565L372.366 312.146C375.254 311.143 379.461 310.141 384.986 309.139C390.512 308.136 396.414 307.635 402.692 307.635Z" fill="white"/>
<path d="M493.385 408.378C487.107 395.472 480.64 380.686 473.984 364.021C467.454 347.231 461.49 329.25 456.09 310.078H480.389C481.77 315.592 483.34 321.544 485.098 327.934C486.981 334.199 488.928 340.527 490.937 346.917C493.072 353.183 495.206 359.322 497.341 365.337C499.601 371.226 501.673 376.551 503.557 381.313C505.441 376.551 507.45 371.226 509.585 365.337C511.719 359.322 513.791 353.183 515.801 346.917C517.935 340.527 519.944 334.199 521.828 327.934C523.712 321.544 525.344 315.592 526.726 310.078H550.271C544.871 329.25 538.843 347.231 532.188 364.021C525.658 380.686 519.254 395.472 512.975 408.378H493.385Z" fill="white"/>
<path d="M601.951 392.402C608.983 392.402 614.32 392.026 617.962 391.275V366.089C616.706 365.713 614.885 365.337 612.499 364.961C610.113 364.585 607.476 364.397 604.588 364.397C602.077 364.397 599.502 364.585 596.865 364.961C594.354 365.337 592.031 366.026 589.896 367.028C587.887 368.031 586.254 369.472 584.998 371.351C583.743 373.106 583.115 375.361 583.115 378.118C583.115 383.506 584.81 387.265 588.201 389.395C591.591 391.4 596.175 392.402 601.951 392.402ZM600.067 307.635C607.602 307.635 613.943 308.575 619.092 310.454C624.24 312.334 628.322 314.965 631.335 318.348C634.475 321.731 636.672 325.866 637.928 330.753C639.309 335.515 640 340.778 640 346.541V406.123C636.484 406.875 631.147 407.752 623.989 408.754C616.957 409.882 608.983 410.446 600.067 410.446C594.165 410.446 588.766 409.882 583.868 408.754C578.971 407.627 574.764 405.81 571.248 403.304C567.857 400.798 565.158 397.54 563.149 393.53C561.265 389.52 560.323 384.571 560.323 378.682C560.323 373.043 561.39 368.281 563.525 364.397C565.786 360.513 568.799 357.38 572.567 354.999C576.334 352.493 580.666 350.739 585.564 349.737C590.586 348.609 595.798 348.045 601.198 348.045C603.709 348.045 606.346 348.233 609.109 348.609C611.871 348.86 614.822 349.361 617.962 350.113V346.353C617.962 343.722 617.648 341.216 617.02 338.835C616.392 336.455 615.262 334.387 613.629 332.633C612.123 330.753 610.051 329.312 607.413 328.31C604.902 327.307 601.7 326.806 597.807 326.806C592.533 326.806 587.698 327.182 583.303 327.934C578.908 328.686 575.329 329.563 572.567 330.565L569.741 312.146C572.629 311.143 576.836 310.141 582.361 309.139C587.887 308.136 593.789 307.635 600.067 307.635Z" fill="white"/>
<path d="M209.353 24.457C212.897 7.78127 229.289 -2.86364 245.965 0.680889C262.64 4.22542 273.285 20.6172 269.741 37.2929L244.069 158.069C240.524 174.745 224.133 185.39 207.457 181.845C190.781 178.3 180.136 161.909 183.681 145.233L209.353 24.457Z" fill="white"/>
<path d="M302.353 24.457C305.897 7.78127 322.289 -2.86364 338.965 0.680889C355.64 4.22542 366.285 20.6172 362.741 37.2929L337.069 158.069C333.524 174.745 317.133 185.39 300.457 181.845C283.781 178.3 273.136 161.909 276.681 145.233L302.353 24.457Z" fill="white"/>
<path d="M395.353 24.457C398.897 7.78127 415.289 -2.86364 431.965 0.680889C448.64 4.22542 459.285 20.6172 455.741 37.2929L430.069 158.069C426.524 174.745 410.133 185.39 393.457 181.845C376.781 178.3 366.136 161.909 369.681 145.233L395.353 24.457Z" fill="white"/>
</svg>
