<svg width="224" height="58" viewBox="0 0 224 58" fill="none" xmlns="http://www.w3.org/2000/svg">
<g clip-path="url(#clip0)">
<path d="M21.3154 16.3303C21.226 16.6735 21.1409 16.9738 21.0536 17.2312C21.7081 16.459 22.3843 15.7082 23.0824 14.9789C23.7783 14.2496 24.4982 13.5417 25.2421 12.8553C26.071 12.126 26.9982 11.4503 28.0235 10.8282C29.0488 10.2061 30.0959 9.7664 31.1648 9.50899C32.2338 9.25159 33.3136 9.21941 34.4043 9.41247C35.4951 9.60552 36.54 10.1311 37.5457 10.9891C38.4183 11.7184 39.0182 12.555 39.3454 13.4988C39.6726 14.4426 39.8145 15.4208 39.7708 16.4268C39.7272 17.435 39.5505 18.4431 39.2473 19.4513C38.9419 20.4595 38.571 21.414 38.1347 22.3149C37.4366 23.8186 36.6513 25.2429 35.7787 26.5943C34.9061 27.9457 34.0335 29.3078 33.1609 30.6806C33.03 30.8951 32.7791 31.2705 32.4083 31.8068C32.0374 32.343 31.6448 32.9437 31.2303 33.6086C30.8158 34.2757 30.4209 34.9493 30.0523 35.6357C29.6814 36.3221 29.4524 36.8798 29.3651 37.3088C29.2757 37.7378 29.3651 37.9845 29.6269 38.0489C29.8887 38.1132 30.434 37.888 31.263 37.3732C32.1792 36.8584 33.1936 36.0969 34.3062 35.0887C35.4187 34.0805 36.5313 32.9973 37.6439 31.839C38.7564 30.6806 39.8144 29.5438 40.8179 28.4283C41.8214 27.3129 42.6722 26.3905 43.3703 25.6612C43.763 25.2322 44.1338 24.9769 44.4828 24.889C44.8319 24.8032 45.1264 24.8354 45.3663 24.9855C45.6063 25.1357 45.7481 25.3931 45.7917 25.7577C45.8354 26.1224 45.7481 26.5192 45.53 26.9482C45.1373 27.7634 44.6028 28.6965 43.9266 29.7475C43.2503 30.7986 42.5195 31.8711 41.7342 32.9651C40.9488 34.0591 40.1526 35.1316 39.3454 36.1827C38.5383 37.2338 37.8075 38.1454 37.153 38.9176C36.4113 39.8185 35.5714 40.7302 34.6334 41.6526C33.6932 42.5749 32.6919 43.3493 31.6229 43.9692C30.5518 44.5913 29.4305 44.9881 28.2525 45.1597C27.0745 45.3313 25.8311 45.1168 24.5222 44.5162C23.2569 43.9156 22.308 43.1326 21.6753 42.1674C21.0405 41.2021 20.65 40.1403 20.4973 38.982C20.3446 37.8236 20.3883 36.6331 20.6282 35.4105C20.866 34.1878 21.226 33.0402 21.7081 31.9677C22.3189 30.509 23.0388 29.1147 23.8677 27.7848C24.6945 26.4549 25.5475 25.1464 26.4201 23.8594C26.9873 23.0443 27.5872 22.2077 28.2198 21.3497C28.8524 20.4916 29.4305 19.6336 29.9541 18.7756C30.434 18.0913 30.6304 17.6495 30.5431 17.4564C30.4537 17.2633 30.205 17.2312 29.7905 17.3599C29.376 17.4886 28.8634 17.7353 28.2525 18.0999C27.6417 18.4646 27.0418 18.84 26.4528 19.2261C25.8638 19.6122 25.3512 19.9661 24.9149 20.2879C24.4786 20.6096 24.2168 20.792 24.1295 20.8349C21.3808 22.8941 18.8285 25.2558 16.4725 27.9135C14.8145 29.7583 13.3093 31.721 11.9568 33.8017C10.6043 35.8824 9.55715 38.1025 8.81544 40.4621C8.59511 41.0198 8.46422 41.5346 8.42277 42.0065C8.37914 42.4784 8.24825 42.9503 8.0301 43.4222C7.76832 43.9799 7.39747 44.409 6.91754 44.7093C6.43761 45.0096 5.91405 45.1919 5.34687 45.2562C4.78186 45.3206 4.20158 45.2777 3.61258 45.1275C3.02358 44.9774 2.48911 44.7307 2.00918 44.3875C0.831176 43.5745 0.176728 42.4891 0.0458385 41.1377C-0.0850511 39.7864 0.056746 38.3599 0.47123 36.8584C0.885713 35.3568 1.44199 33.8982 2.14007 32.4825C2.83815 31.0667 3.42715 29.9084 3.90708 29.0075C4.56153 27.8063 5.30324 26.6265 6.1322 25.4682C6.95899 24.3098 7.79014 23.1301 8.6191 21.9288C9.44807 20.7276 10.2334 19.4942 10.9751 18.2286C11.7168 16.963 12.3495 15.6438 12.873 14.271C13.0912 13.3701 13.4838 12.6729 14.051 12.1796C14.6182 11.6862 15.2508 11.3645 15.9489 11.2143C16.6448 11.0642 17.356 11.077 18.0759 11.2465C18.7958 11.4181 19.4393 11.7291 20.0065 12.1796C20.5737 12.63 20.9882 13.2092 21.2499 13.9171C21.5117 14.6249 21.5335 15.4293 21.3154 16.3303Z" fill="#1B1B1B"/>
<path d="M86.6947 13.1127C87.2619 12.984 87.7091 13.0054 88.0363 13.177C88.3635 13.3486 88.5708 13.5846 88.658 13.8849C88.7453 14.1852 88.7017 14.5177 88.5272 14.8824C88.3526 15.247 88.0472 15.558 87.6109 15.8154C85.1676 17.317 82.6262 18.5611 79.9866 19.5478C77.347 20.5346 74.7619 21.1566 72.2314 21.414C72.0569 23.2159 71.6511 25.007 71.0207 26.7874C70.388 28.5678 69.7009 30.2087 68.9592 31.7103C68.3483 32.9544 67.6394 34.1985 66.8322 35.4427C66.0229 36.6889 65.1415 37.8773 64.1817 39.0142C63.2218 40.151 62.1747 41.1935 61.0403 42.1352C59.906 43.079 58.6843 43.8319 57.3754 44.3875C55.2812 45.2884 53.2306 45.578 51.2236 45.2563C49.2167 44.9345 47.4387 44.1837 45.8899 43.004C44.341 41.8242 43.1412 40.3012 42.2904 38.435C41.4396 36.5688 41.1451 34.5632 41.4069 32.4181C41.7581 29.2006 42.694 26.0581 44.221 22.9906C45.7481 19.9232 47.6678 17.2312 49.9802 14.9145C51.0709 13.7991 52.2598 12.7802 53.5469 11.8578C54.8318 10.9355 56.2192 10.2169 57.7027 9.70206C58.139 9.53045 58.6603 9.39102 59.2733 9.28377C59.8841 9.17652 60.5037 9.11217 61.1385 9.09072C61.7711 9.06927 62.382 9.12289 62.971 9.2516C63.56 9.3803 64.0944 9.5948 64.5744 9.89511C65.7087 9.98091 66.7995 10.3777 67.8466 11.0856C68.8937 11.7935 69.7881 12.6622 70.5298 13.6918C73.4967 14.2496 76.2563 14.4426 78.8086 14.271C81.3609 14.0994 83.9875 13.7154 86.6947 13.1127ZM53.4466 25.6612C52.4431 27.2915 51.6359 28.9861 51.0251 30.745C50.4143 32.5039 50.0434 34.0269 49.9125 35.3139C49.7817 36.601 49.9453 37.4933 50.4034 37.9845C50.8615 38.4779 51.7014 38.2741 52.923 37.3732C53.9701 36.5602 54.9191 35.7129 55.7699 34.8313C56.6206 33.9518 57.4387 32.9758 58.224 31.9033C59.0508 30.8308 59.8143 29.7046 60.5146 28.5249C61.2127 27.3451 61.8235 26.1353 62.3471 24.889C62.5652 24.2884 62.7833 23.6556 63.0015 22.9906C63.2196 22.3257 63.3702 21.6071 63.4596 20.8349C62.8052 20.6204 62.1834 20.3093 61.5944 19.9018C61.0054 19.4964 60.4492 18.9258 59.9256 18.1965C58.6167 19.1832 57.4169 20.3308 56.3261 21.6393C55.2354 22.9477 54.2755 24.2884 53.4466 25.6612Z" fill="#1B1B1B"/>
<path d="M90.8831 16.3303C90.7937 16.6735 90.7086 16.9738 90.6214 17.2312C91.2758 16.459 91.9521 15.7082 92.6502 14.9789C93.3461 14.2496 94.0659 13.5417 94.8098 12.8553C95.6388 12.126 96.5659 11.4503 97.5912 10.8282C98.6165 10.2061 99.6636 9.7664 100.733 9.50899C101.802 9.25159 102.881 9.21941 103.972 9.41247C105.063 9.60552 106.108 10.1311 107.113 10.9891C107.986 11.7184 108.586 12.555 108.913 13.4988C109.24 14.4426 109.382 15.4208 109.339 16.4268C109.295 17.435 109.118 18.4431 108.815 19.4513C108.51 20.4595 108.139 21.414 107.702 22.3149C107.004 23.8186 106.219 25.2429 105.346 26.5943C104.474 27.9457 103.601 29.3078 102.729 30.6806C102.598 30.8951 102.347 31.2705 101.976 31.8068C101.605 32.343 101.213 32.9437 100.798 33.6086C100.384 34.2757 99.9887 34.9493 99.62 35.6357C99.2492 36.3221 99.0201 36.8798 98.9329 37.3088C98.8434 37.7378 98.9329 37.9845 99.1946 38.0489C99.4564 38.1132 100.002 37.888 100.831 37.3732C101.747 36.8584 102.761 36.0969 103.874 35.0887C104.986 34.0805 106.099 32.9973 107.212 31.839C108.324 30.6806 109.382 29.5438 110.386 28.4283C111.389 27.3129 112.24 26.3905 112.938 25.6612C113.331 25.2322 113.702 24.9769 114.051 24.889C114.4 24.8032 114.694 24.8354 114.934 24.9855C115.174 25.1357 115.316 25.3931 115.359 25.7577C115.403 26.1224 115.316 26.5192 115.098 26.9482C114.705 27.7634 114.171 28.6965 113.494 29.7475C112.818 30.7986 112.087 31.8711 111.302 32.9651C110.517 34.0591 109.72 35.1316 108.913 36.1827C108.106 37.2338 107.375 38.1454 106.721 38.9176C105.979 39.8185 105.139 40.7302 104.201 41.6526C103.261 42.5749 102.26 43.3493 101.191 43.9692C100.12 44.5913 98.9983 44.9881 97.8203 45.1597C96.6423 45.3313 95.3988 45.1168 94.0899 44.5162C92.8247 43.9156 91.8757 43.1326 91.2431 42.1674C90.6083 41.2021 90.2178 40.1403 90.0651 38.982C89.9124 37.8236 89.956 36.6331 90.196 35.4105C90.4338 34.1878 90.7937 33.0402 91.2758 31.9677C91.8866 30.509 92.6065 29.1147 93.4355 27.7848C94.2623 26.4549 95.1152 25.1464 95.9878 23.8594C96.555 23.0443 97.1549 22.2077 97.7876 21.3497C98.4202 20.4916 98.9983 19.6336 99.5219 18.7756C100.002 18.0913 100.198 17.6495 100.111 17.4564C100.021 17.2633 99.7727 17.2312 99.3582 17.3599C98.9438 17.4886 98.4311 17.7353 97.8203 18.0999C97.2095 18.4646 96.6096 18.84 96.0206 19.2261C95.4316 19.6122 94.9189 19.9661 94.4826 20.2879C94.0463 20.6096 93.7845 20.792 93.6973 20.8349C90.9486 22.8941 88.3962 25.2558 86.0402 27.9135C84.3823 29.7583 82.8771 31.721 81.5245 33.8017C80.172 35.8824 79.1249 38.1025 78.3832 40.4621C78.1629 41.0198 78.032 41.5346 77.9905 42.0065C77.9469 42.4784 77.816 42.9503 77.5979 43.4222C77.3361 43.9799 76.9652 44.409 76.4853 44.7093C76.0054 45.0096 75.4818 45.1919 74.9146 45.2562C74.3496 45.3206 73.7693 45.2777 73.1803 45.1275C72.5913 44.9774 72.0569 44.7307 71.5769 44.3875C70.3989 43.5745 69.7445 42.4891 69.6136 41.1377C69.4827 39.7864 69.6245 38.3599 70.039 36.8584C70.4535 35.3568 71.0097 33.8982 71.7078 32.4825C72.4059 31.0667 72.9949 29.9084 73.4748 29.0075C74.1293 27.8063 74.871 26.6265 75.7 25.4682C76.5267 24.3098 77.3579 23.1301 78.1869 21.9288C79.0158 20.7276 79.8012 19.4942 80.5429 18.2286C81.2846 16.963 81.9172 15.6438 82.4408 14.271C82.6589 13.3701 83.0516 12.6729 83.6188 12.1796C84.186 11.6862 84.8186 11.3645 85.5167 11.2143C86.2126 11.0642 86.9237 11.077 87.6436 11.2465C88.3635 11.4181 89.0071 11.7291 89.5742 12.1796C90.1414 12.63 90.5559 13.2092 90.8177 13.9171C91.0773 14.6249 91.0991 15.4293 90.8831 16.3303Z" fill="#1B1B1B"/>
<path d="M128.512 21.0279C129.21 19.8696 129.624 19.0008 129.755 18.4217C129.886 17.8425 129.81 17.4564 129.526 17.2634C129.243 17.0703 128.815 17.0381 128.25 17.1668C127.683 17.2955 127.061 17.5208 126.385 17.8425C125.706 18.1643 125.03 18.5182 124.356 18.9043C123.678 19.2904 123.123 19.6551 122.687 19.9983C121.116 21.1137 120.091 22.0683 119.611 22.8619C119.129 23.6556 118.998 24.224 119.219 24.5673C119.349 24.7818 119.611 24.8997 120.004 24.9212C120.397 24.9426 120.855 24.9426 121.378 24.9212C121.902 24.8997 122.414 24.8461 122.916 24.7603C123.418 24.6745 123.822 24.6316 124.127 24.6316C125.61 24.5029 126.93 24.6766 128.086 25.1464C129.243 25.6183 130.17 26.2833 130.868 27.1413C131.566 27.9993 132.035 29.0182 132.275 30.198C132.515 31.3778 132.504 32.6326 132.242 33.9626C133.071 33.4907 133.867 32.89 134.631 32.1607C135.394 31.4314 136.103 30.6806 136.758 29.9084C137.412 29.1362 138.001 28.3747 138.525 27.6239C139.048 26.8732 139.506 26.2618 139.899 25.7899C140.379 25.1893 140.848 24.8247 141.306 24.696C141.764 24.5673 142.124 24.6102 142.386 24.8247C142.648 25.0392 142.798 25.3824 142.844 25.8543C142.888 26.3262 142.713 26.8839 142.321 27.5274C140.706 30.4876 138.939 33.2011 137.02 35.6679C135.1 38.1347 132.875 40.269 130.344 42.0709C129.297 42.8002 128.043 43.433 126.581 43.9692C125.119 44.5055 123.592 44.9131 122 45.1919C120.407 45.4708 118.848 45.5995 117.321 45.578C115.794 45.5566 114.441 45.3528 113.263 44.9667C112.652 44.7522 112.031 44.4626 111.398 44.0979C110.765 43.7333 110.187 43.3043 109.664 42.8109C109.14 42.3197 108.715 41.7598 108.387 41.1378C108.06 40.5157 107.897 39.84 107.897 39.1107C107.897 38.2098 108.158 37.3968 108.682 36.6653C109.206 35.936 109.849 35.389 110.613 35.0244C111.376 34.6597 112.183 34.4988 113.034 34.5417C113.885 34.5846 114.659 34.8849 115.357 35.4427C116.361 36.3007 117.43 36.9656 118.564 37.4376C118.826 37.3946 119.36 37.0836 120.168 36.5045C120.975 35.9253 121.782 35.2496 122.589 34.4774C123.396 33.7052 124.083 32.9544 124.65 32.2251C125.218 31.4958 125.392 30.9381 125.174 30.5519C125 30.2945 124.694 30.1766 124.258 30.198C123.822 30.2195 123.472 30.2731 123.211 30.3589C122.164 30.5755 121.073 30.6613 119.938 30.6163C118.802 30.5734 117.735 30.3825 116.732 30.0371C115.728 29.6939 114.845 29.1684 114.081 28.4605C113.318 27.7527 112.783 26.7981 112.478 25.5969C112.085 24.2669 112.02 22.9477 112.281 21.6393C112.543 20.3308 113.023 19.0759 113.721 17.8747C114.419 16.6735 115.259 15.5795 116.241 14.5928C117.222 13.606 118.237 12.748 119.284 12.0187C120.331 11.3323 121.542 10.7102 122.916 10.1525C124.291 9.5948 125.687 9.23015 127.105 9.05854C128.523 8.88694 129.897 8.99419 131.228 9.3803C132.558 9.76641 133.704 10.5386 134.664 11.697C135.49 12.7266 135.94 13.8313 136.005 15.0111C136.071 16.1908 135.874 17.317 135.416 18.3895C134.958 19.462 134.282 20.4273 133.387 21.2853C132.493 22.1433 131.479 22.789 130.344 23.2159C129.472 23.4733 128.839 23.366 128.446 22.8941C128.054 22.4222 128.073 21.8001 128.512 21.0279Z" fill="#1B1B1B"/>
<path d="M165.357 11.5682C164.877 12.4263 164.234 13.102 163.427 13.5953C162.619 14.0887 161.736 14.4641 160.776 14.7215C159.816 14.9789 158.821 15.129 157.798 15.1719C156.775 15.2148 155.802 15.2148 154.886 15.1719C154.319 16.1158 153.577 17.4135 152.661 19.0652C151.745 20.7169 150.828 22.4758 149.912 24.342C148.996 26.2082 148.134 28.0744 147.327 29.9406C146.52 31.8068 145.964 33.4049 145.658 34.7348C145.266 36.1098 145.277 36.9978 145.691 37.4054C146.105 37.8129 146.945 37.6092 148.211 36.794C149.168 36.1934 150.119 35.4427 151.057 34.5417C151.996 33.6408 152.89 32.7077 153.741 31.7424C154.591 30.7772 155.399 29.8226 156.162 28.8788C156.926 27.9371 157.591 27.0984 158.158 26.3691C158.595 25.7685 159.042 25.4038 159.5 25.2751C159.958 25.1464 160.329 25.1786 160.612 25.3716C160.896 25.5647 161.071 25.8972 161.136 26.3691C161.201 26.841 161.081 27.3773 160.776 27.9779C160.078 29.4365 159.369 30.9059 158.649 32.386C157.929 33.866 157.166 35.2925 156.358 36.6653C155.549 38.0382 154.657 39.3145 153.675 40.4942C152.694 41.674 151.59 42.6929 150.37 43.5509C148.887 44.5806 147.229 45.2026 145.396 45.4171C143.564 45.6316 141.884 45.1833 140.357 44.0658C139.136 43.2077 138.296 42.1459 137.838 40.8804C137.38 39.6148 137.15 38.2741 137.15 36.8584C137.15 35.4427 137.303 34.0269 137.609 32.6112C137.914 31.1955 138.263 29.887 138.656 28.6857C138.961 27.6132 139.334 26.53 139.768 25.436C140.205 24.342 140.695 23.1944 141.241 21.9932C141.786 20.792 142.397 19.4942 143.073 18.0999C143.749 16.7078 144.524 15.1719 145.396 13.4988C144.786 13.413 144.208 13.2843 143.662 13.1127C143.117 12.9411 142.67 12.6837 142.321 12.3405C141.797 11.7828 141.688 11.1285 141.993 10.3777C142.299 9.62698 142.844 8.92984 143.629 8.28632C144.415 7.64281 145.364 7.11727 146.476 6.70971C147.589 6.30215 148.691 6.16272 149.781 6.29143C150.392 5.43341 151.057 4.59684 151.777 3.78172C152.497 2.9666 153.272 2.23728 154.101 1.59377C154.755 1.07896 155.551 0.671396 156.489 0.371089C157.427 0.0707825 158.333 -0.0471952 159.205 0.0171563C160.078 0.0815078 160.863 0.360364 161.561 0.853726C162.259 1.34709 162.696 2.13003 162.87 3.20256C163.045 4.23218 162.903 5.19745 162.445 6.09837C161.987 6.99929 161.452 7.83586 160.841 8.60808C161.321 8.77969 161.823 8.91911 162.347 9.02637C162.87 9.13362 163.37 9.18724 163.852 9.18724C164.594 9.18724 165.095 9.45538 165.357 9.99164C165.619 10.5279 165.619 11.0534 165.357 11.5682Z" fill="#1B1B1B"/>
<path d="M187.541 16.9094C185.316 16.652 183.189 16.8665 181.16 17.5529C179.131 18.2393 177.244 19.2153 175.499 20.4809C173.754 21.7465 172.172 23.1837 170.754 24.7925C169.336 26.4013 168.125 28.0208 167.122 29.651C165.377 32.4825 164.537 34.3379 164.602 35.2174C164.668 36.0969 165.268 36.2385 166.402 35.6357C167.536 35.0351 169.009 33.8124 170.82 31.9677C172.63 30.1251 174.43 27.9135 176.219 25.3395C176.655 24.7388 177.124 24.1168 177.626 23.4733C178.125 22.8297 178.673 22.2399 179.262 21.7036C179.851 21.1673 180.514 20.7169 181.258 20.3522C182 19.9876 182.807 19.7623 183.679 19.6765C184.727 19.5907 185.61 19.7216 186.33 20.0626C187.05 20.4058 187.595 20.8885 187.966 21.5105C188.337 22.1347 188.49 22.8726 188.424 23.7307C188.359 24.5887 188.042 25.4896 187.475 26.4334C187.213 26.9053 186.864 27.4523 186.428 28.0744C185.992 28.6986 185.545 29.3721 185.087 30.1015C184.628 30.8308 184.192 31.5708 183.778 32.3216C183.363 33.0745 183.025 33.7931 182.763 34.4774C182.412 35.4212 182.501 35.8609 183.025 35.7966C183.549 35.7322 184.247 35.3354 185.119 34.6061C186.777 33.2332 188.293 31.7639 189.668 30.198C191.042 28.6321 192.362 27.1842 193.627 25.8543C193.889 25.5969 194.162 25.4467 194.445 25.4038C194.729 25.3609 194.991 25.4038 195.23 25.5325C195.47 25.6612 195.656 25.865 195.787 26.1438C195.918 26.4227 195.939 26.7552 195.852 27.1413C195.501 28.645 194.772 30.391 193.66 32.3859C192.547 34.3808 191.227 36.3007 189.7 38.1454C188.173 39.9901 186.537 41.5989 184.792 42.9718C183.047 44.3446 181.389 45.1383 179.818 45.3528C178.771 45.4815 177.789 45.4064 176.873 45.1275C175.957 44.8487 175.172 44.4111 174.517 43.8083C173.863 43.2077 173.339 42.4677 172.947 41.5882C172.554 40.7087 172.358 39.7542 172.358 38.7246C172.358 37.9094 172.434 37.0943 172.587 36.2792C172.739 35.4641 172.947 34.649 173.208 33.8338C172.467 35.0801 171.681 36.4294 170.852 37.888C170.023 39.3466 169.085 40.6766 168.038 41.8778C166.991 43.079 165.822 44.0014 164.537 44.6449C163.25 45.2884 161.775 45.4171 160.119 45.031C158.245 44.602 156.913 43.7654 156.127 42.5213C155.342 41.2772 154.897 39.8722 154.786 38.3063C154.677 36.7425 154.829 35.1337 155.244 33.4799C155.658 31.8282 156.151 30.3825 156.716 29.1362C158.156 25.9186 160.032 22.9477 162.344 20.2235C164.657 17.4993 167.296 15.1719 170.263 13.2414C171.616 12.3405 173.13 11.5361 174.812 10.8282C176.491 10.1203 178.204 9.63769 179.949 9.38028C181.692 9.12288 183.418 9.15505 185.119 9.47681C186.821 9.79857 188.391 10.5386 189.831 11.6969C190.398 12.1688 190.737 12.7158 190.846 13.3379C190.955 13.96 190.889 14.5499 190.649 15.1076C190.409 15.6653 190.017 16.1286 189.471 16.4911C188.926 16.8558 188.282 16.9952 187.541 16.9094Z" fill="#1B1B1B"/>
<path d="M207.436 15.2363C207.436 15.453 207.425 15.6653 207.403 15.8798C207.381 16.0965 207.349 16.3088 207.305 16.5233C208.047 15.365 208.819 14.2389 209.628 13.1449C210.435 12.0509 211.428 11.1393 212.606 10.4099C213.653 9.76642 214.722 9.40176 215.813 9.31596C216.904 9.23016 217.94 9.35886 218.921 9.70207C219.903 10.0474 220.776 10.603 221.539 11.3752C222.303 12.1474 222.881 13.0698 223.274 14.1423C223.797 15.5581 224.037 17.0596 223.993 18.6469C223.95 20.2343 223.743 21.813 223.372 23.3768C223.001 24.9427 222.499 26.4656 221.867 27.9457C221.234 29.4258 220.569 30.7665 219.87 31.9677C218.867 33.7266 217.765 35.3676 216.565 36.8906C215.366 38.4136 214.089 39.7542 212.737 40.9125C211.384 42.0709 209.988 43.0147 208.548 43.744C207.109 44.4733 205.647 44.9238 204.164 45.0954C202.462 45.312 200.739 45.1276 198.994 44.5484C197.248 43.9692 195.874 43.0147 194.871 41.6848C193.998 43.315 193.169 44.9774 192.384 46.672C191.598 48.3666 190.878 50.1148 190.224 51.9167C190.006 52.4315 189.831 52.957 189.7 53.4933C189.57 54.0295 189.406 54.5551 189.21 55.0699C189.013 55.5847 188.762 56.0566 188.457 56.4856C188.152 56.9146 187.715 57.2578 187.148 57.5152C186.494 57.8584 185.83 58.0193 185.152 57.9979C184.476 57.9764 183.854 57.8155 183.287 57.5152C182.72 57.2149 182.231 56.8074 181.814 56.2926C181.4 55.7777 181.127 55.175 180.996 54.4907C180.865 53.6327 180.898 52.7103 181.094 51.7236C181.291 50.7369 181.574 49.7394 181.945 48.7313C182.316 47.7231 182.72 46.7578 183.156 45.8354C183.592 44.9131 183.985 44.1087 184.334 43.4223C184.857 42.3926 185.503 41.1485 186.265 39.6899C187.028 38.2312 187.868 36.6439 188.784 34.9279C189.7 33.2118 190.641 31.4314 191.598 29.5867C192.558 27.7441 193.485 25.9508 194.38 24.2133C195.274 22.4758 196.103 20.8349 196.867 19.2904C197.63 17.746 198.252 16.4161 198.732 15.3007C198.775 14.3997 199.015 13.6382 199.452 13.0162C199.888 12.3941 200.433 11.9329 201.088 11.6326C201.742 11.3323 202.44 11.1822 203.182 11.1822C203.924 11.1822 204.611 11.3323 205.244 11.6326C205.876 11.9329 206.4 12.3855 206.814 12.984C207.229 13.5846 207.436 14.3354 207.436 15.2363ZM203.967 36.3436C204.753 35.9146 205.527 35.314 206.291 34.5418C207.054 33.7695 207.774 32.9222 208.45 31.9999C209.127 31.0775 209.768 30.1122 210.381 29.104C210.992 28.0959 211.559 27.1199 212.083 26.1761C212.475 25.5754 212.909 24.7818 213.391 23.7951C213.871 22.8083 214.275 21.8216 214.602 20.8349C214.929 19.8503 215.137 18.958 215.224 18.1643C215.311 17.3706 215.169 16.8558 214.798 16.6199C214.428 16.3839 213.76 16.5341 212.802 17.0703C211.843 17.6066 210.488 18.7113 208.745 20.3844C207.61 21.502 206.531 22.6925 205.505 23.9559C204.48 25.2215 203.509 26.5193 202.593 27.8492C202.419 28.1066 202.244 28.364 202.069 28.6214C201.893 28.8788 201.677 29.2328 201.415 29.6832C201.153 30.1337 200.815 30.6914 200.401 31.3564C199.986 32.0213 199.493 32.8901 198.928 33.9626C198.972 34.3058 199.168 34.6812 199.517 35.0887C199.866 35.4963 200.281 35.8502 200.761 36.1505C201.24 36.4508 201.762 36.6332 202.331 36.6975C202.898 36.7619 203.444 36.6439 203.967 36.3436Z" fill="#1B1B1B"/>
</g>
<defs>
<clipPath id="clip0">
<rect width="224" height="58" fill="white"/>
</clipPath>
</defs>
</svg>
