<svg xmlns="http://www.w3.org/2000/svg" viewBox="0 0 69.732 73.91">
  <defs>
    <style>
      .cls-1 {
        fill: #1d1d1d;
        stroke: #1d1d1d;
      }
    </style>
  </defs>
  <g id="_126495" data-name="126495" transform="translate(-13.3 0.5)">
    <path id="Path_1" data-name="Path 1" class="cls-1" d="M69.482,46.841a13.047,13.047,0,0,0-10.325,5.087L39.128,40.739a13.078,13.078,0,0,0,.727-4.3,12.792,12.792,0,0,0-.742-4.315L59.127,20.953a13.021,13.021,0,1,0-2.695-7.918,12.727,12.727,0,0,0,.742,4.315l-20,11.173a13.023,13.023,0,1,0,.03,15.82L57.219,55.53a13.028,13.028,0,1,0,12.263-8.69Zm0-42.738a8.947,8.947,0,1,1-8.947,8.947A8.955,8.955,0,0,1,69.482,4.1ZM26.85,45.387A8.947,8.947,0,1,1,35.8,36.44,8.955,8.955,0,0,1,26.85,45.387Zm42.632,23.42a8.947,8.947,0,1,1,8.947-8.947A8.955,8.955,0,0,1,69.482,68.807Z" transform="translate(0 0)"/>
  </g>
</svg>
