<svg xmlns="http://www.w3.org/2000/svg" xmlns:xlink="http://www.w3.org/1999/xlink" viewBox="0 0 49.17 38.61"><defs><style>.cls-1,.cls-3{fill:none;}.cls-2{clip-path:url(#clip-path);}.cls-3{stroke:#fff;stroke-miterlimit:10;stroke-width:0.28px;}</style><clipPath id="clip-path"><path class="cls-1" d="M14.64,0C7,0,1.5,4.5,1.5,11.31v.11C1.5,18.87,6.38,21,13.94,22.9c6.27,1.61,7.56,2.68,7.56,4.77v.11c0,2.2-2,3.54-5.42,3.54-4.29,0-7.83-1.77-11.21-4.56L0,32.6a23.88,23.88,0,0,0,15.92,6c4.18,0,7.71-1.12,10.15-3.23a15.4,15.4,0,0,0,9.8,3.23c4.08,0,7.45-1.18,9.76-3.48s3.54-5.58,3.54-10V0ZM40.7,24.72c0,4.34-1.93,6.22-5,6.22-2.28,0-4.15-1.05-6-2.87,0-.36.05-.72.05-1.1v-.11c0-6.54-4.29-9.28-11.9-11.26-6.49-1.66-8.1-2.47-8.1-4.93v-.11c0-1.82,1.77-2.75,4.93-2.75H40.7Z"/></clipPath></defs><title>card</title><g id="Capa_1" data-name="Capa 1"><g class="cls-2"><line class="cls-3" x1="-49.73" y1="68.2" x2="57.42" y2="-60.73"/><line class="cls-3" x1="-49.73" y1="69.63" x2="57.42" y2="-59.3"/><line class="cls-3" x1="-49.73" y1="71.05" x2="57.42" y2="-57.87"/><line class="cls-3" x1="-49.73" y1="72.48" x2="57.42" y2="-56.45"/><line class="cls-3" x1="-49.73" y1="73.91" x2="57.42" y2="-55.02"/><line class="cls-3" x1="-49.73" y1="75.34" x2="57.42" y2="-53.59"/><line class="cls-3" x1="-49.73" y1="76.77" x2="57.42" y2="-52.16"/><line class="cls-3" x1="-49.73" y1="78.2" x2="57.42" y2="-50.73"/><line class="cls-3" x1="-49.73" y1="79.63" x2="57.42" y2="-49.3"/><line class="cls-3" x1="-49.73" y1="81.06" x2="57.42" y2="-47.87"/><line class="cls-3" x1="-49.73" y1="82.49" x2="57.42" y2="-46.44"/><line class="cls-3" x1="-49.73" y1="83.92" x2="57.42" y2="-45.01"/><line class="cls-3" x1="-49.73" y1="85.34" x2="57.42" y2="-43.58"/><line class="cls-3" x1="-49.73" y1="86.77" x2="57.42" y2="-42.16"/><line class="cls-3" x1="-49.73" y1="88.2" x2="57.42" y2="-40.73"/><line class="cls-3" x1="-49.73" y1="89.63" x2="57.42" y2="-39.3"/><line class="cls-3" x1="-49.73" y1="91.06" x2="57.42" y2="-37.87"/><line class="cls-3" x1="-49.73" y1="92.49" x2="57.42" y2="-36.44"/><line class="cls-3" x1="-49.73" y1="93.92" x2="57.42" y2="-35.01"/><line class="cls-3" x1="-49.73" y1="95.35" x2="57.42" y2="-33.58"/><line class="cls-3" x1="-49.73" y1="96.78" x2="57.42" y2="-32.15"/><line class="cls-3" x1="-49.73" y1="98.21" x2="57.42" y2="-30.72"/><line class="cls-3" x1="-49.73" y1="99.63" x2="57.42" y2="-29.29"/><line class="cls-3" x1="-49.73" y1="101.06" x2="57.42" y2="-27.87"/><line class="cls-3" x1="-49.73" y1="102.49" x2="57.42" y2="-26.44"/><line class="cls-3" x1="-49.73" y1="103.92" x2="57.42" y2="-25.01"/><line class="cls-3" x1="-49.73" y1="105.35" x2="57.42" y2="-23.58"/><line class="cls-3" x1="-49.73" y1="106.78" x2="57.42" y2="-22.15"/><line class="cls-3" x1="-49.73" y1="108.21" x2="57.42" y2="-20.72"/><line class="cls-3" x1="-49.73" y1="109.64" x2="57.42" y2="-19.29"/><line class="cls-3" x1="-49.73" y1="111.07" x2="57.42" y2="-17.86"/><line class="cls-3" x1="-49.73" y1="112.5" x2="57.42" y2="-16.43"/><line class="cls-3" x1="-49.73" y1="113.92" x2="57.42" y2="-15"/><line class="cls-3" x1="-49.73" y1="115.35" x2="57.42" y2="-13.58"/><line class="cls-3" x1="-49.73" y1="116.78" x2="57.42" y2="-12.15"/><line class="cls-3" x1="-49.73" y1="118.21" x2="57.42" y2="-10.72"/><line class="cls-3" x1="-49.73" y1="119.64" x2="57.42" y2="-9.29"/><line class="cls-3" x1="-49.73" y1="121.07" x2="57.42" y2="-7.86"/><line class="cls-3" x1="-49.73" y1="122.5" x2="57.42" y2="-6.43"/><line class="cls-3" x1="-49.73" y1="123.93" x2="57.42" y2="-5"/><line class="cls-3" x1="-49.73" y1="125.36" x2="57.42" y2="-3.57"/><line class="cls-3" x1="-49.73" y1="126.79" x2="57.42" y2="-2.14"/><line class="cls-3" x1="-49.73" y1="128.21" x2="57.42" y2="-0.71"/><line class="cls-3" x1="-49.73" y1="129.64" x2="57.42" y2="0.71"/><line class="cls-3" x1="-49.73" y1="131.07" x2="57.42" y2="2.14"/><line class="cls-3" x1="-49.73" y1="132.5" x2="57.42" y2="3.57"/><line class="cls-3" x1="-49.73" y1="133.93" x2="57.42" y2="5"/><line class="cls-3" x1="-49.73" y1="135.36" x2="57.42" y2="6.43"/><line class="cls-3" x1="-49.73" y1="136.79" x2="57.42" y2="7.86"/><line class="cls-3" x1="-49.73" y1="138.22" x2="57.42" y2="9.29"/><line class="cls-3" x1="-49.73" y1="139.65" x2="57.42" y2="10.72"/><line class="cls-3" x1="-49.73" y1="141.08" x2="57.42" y2="12.15"/><line class="cls-3" x1="-49.73" y1="142.5" x2="57.42" y2="13.58"/><line class="cls-3" x1="-49.73" y1="143.93" x2="57.42" y2="15"/><line class="cls-3" x1="-49.73" y1="145.36" x2="57.42" y2="16.43"/><line class="cls-3" x1="-49.73" y1="146.79" x2="57.42" y2="17.86"/><line class="cls-3" x1="-49.73" y1="148.22" x2="57.42" y2="19.29"/><line class="cls-3" x1="-49.73" y1="149.65" x2="57.42" y2="20.72"/><line class="cls-3" x1="-49.73" y1="151.08" x2="57.42" y2="22.15"/><line class="cls-3" x1="-49.73" y1="152.51" x2="57.42" y2="23.58"/><line class="cls-3" x1="-49.73" y1="153.94" x2="57.42" y2="25.01"/><line class="cls-3" x1="-49.73" y1="155.37" x2="57.42" y2="26.44"/><line class="cls-3" x1="-49.73" y1="156.79" x2="57.42" y2="27.87"/><line class="cls-3" x1="-49.73" y1="158.22" x2="57.42" y2="29.29"/><line class="cls-3" x1="-49.73" y1="159.65" x2="57.42" y2="30.72"/><line class="cls-3" x1="-49.73" y1="161.08" x2="57.42" y2="32.15"/></g></g></svg>