<svg id="Capa_1" data-name="Capa 1" xmlns="http://www.w3.org/2000/svg" viewBox="0 0 192 192"><defs><style>.cls-1{fill:#fff;}</style></defs><title>ICONS</title><path class="cls-1" d="M124.61,51.08H67.39A16.58,16.58,0,0,0,50.82,67.65v57.22a16.58,16.58,0,0,0,16.57,16.57h57.22a16.58,16.58,0,0,0,16.57-16.57V67.65A16.58,16.58,0,0,0,124.61,51.08ZM96,126a29.75,29.75,0,1,1,29.75-29.74A29.77,29.77,0,0,1,96,126Zm30.7-53.34a7,7,0,1,1,7-7A7,7,0,0,1,126.7,72.66Z"/><path class="cls-1" d="M96,79.08a17.18,17.18,0,1,0,17.17,17.18A17.2,17.2,0,0,0,96,79.08Z"/><path class="cls-1" d="M96,0a96,96,0,1,0,96,96A96,96,0,0,0,96,0Zm57.75,124.87A29.17,29.17,0,0,1,124.61,154H67.39a29.17,29.17,0,0,1-29.14-29.14V67.65A29.17,29.17,0,0,1,67.39,38.51h57.22a29.17,29.17,0,0,1,29.14,29.14Z"/></svg>