<svg id="Capa_1" data-name="Capa 1" xmlns="http://www.w3.org/2000/svg" viewBox="0 0 192 192"><defs><style>.cls-1{fill:#fff;}</style></defs><title>ICONS</title><path class="cls-1" d="M81.68,81.61c0-7.51-5.09-7.51-5.09-7.51h-21V90.2H75.29C78.7,90.2,81.68,89.11,81.68,81.61Z"/><path class="cls-1" d="M130.3,90.2c-11.12,0-12.66,11.09-12.66,11.09h23.64S141.46,90.2,130.3,90.2Z"/><path class="cls-1" d="M76.59,101.29h-21v19.3H75.54c3-.07,8.63-1,8.63-9.37C84.21,101.22,76.59,101.29,76.59,101.29Z"/><path class="cls-1" d="M95.71.58a95.71,95.71,0,1,0,95.71,95.71A95.71,95.71,0,0,0,95.71.58Zm18.8,65h29.76v8.88H114.51Zm-15,46.56c0,22-22.91,21.29-22.91,21.29H39.09V61.3h37.5C88,61.3,97,67.61,97,80.49S86,94.2,86,94.2C100.48,94.2,99.5,112.1,99.5,112.1Zm55.61-1.16H117.78c0,13.37,12.66,12.52,12.66,12.52,12,0,11.58-7.75,11.58-7.75h12.66c0,20.59-24.66,19.19-24.66,19.19-29.57,0-27.68-27.57-27.68-27.57s0-27.69,27.68-27.69C159.21,79.64,155.11,110.94,155.11,110.94Z"/></svg>