<svg id="Capa_1" data-name="Capa 1" xmlns="http://www.w3.org/2000/svg" viewBox="0 0 192 192"><defs><style>.cls-1{fill:#fff;}</style></defs><title>ICONS</title><path class="cls-1" d="M96,0a96,96,0,1,0,96,96A96,96,0,0,0,96,0ZM73.32,138.59H52.49V75.94H73.32ZM62.91,67.39h-.14c-7,0-11.51-4.82-11.51-10.83S55.92,45.74,63,45.74s11.51,4.67,11.65,10.82S70.17,67.39,62.91,67.39Zm85.51,71.2H127.59V105.07c0-8.42-3-14.17-10.55-14.17-5.75,0-9.17,3.87-10.68,7.62a14.24,14.24,0,0,0-.69,5.08v35H84.84s.28-56.78,0-62.65h20.83v8.87c2.77-4.26,7.71-10.35,18.77-10.35,13.71,0,24,9,24,28.2Z"/><path class="cls-1" d="M105.67,85v-.21c0,.07-.1.14-.14.21Z"/></svg>