<?xml version="1.0" encoding="utf-8"?>
<!-- Generator: Adobe Illustrator 22.0.1, SVG Export Plug-In . SVG Version: 6.00 Build 0)  -->
<svg version="1.1" id="Capa_1" xmlns="http://www.w3.org/2000/svg" xmlns:xlink="http://www.w3.org/1999/xlink" x="0px" y="0px"
	 viewBox="0 0 72 72" style="enable-background:new 0 0 72 72;" xml:space="preserve">
<style type="text/css">
	.st0{fill:#FFFFFF;}
</style>
<path id="Sin_título-1-5" class="st0" d="M36,10C20.4,10,6.3,19.3,0.2,33.7c-0.2,0.6-0.2,1.3,0,1.9c8.4,19.8,31.2,29,51,20.6
	c9.3-3.9,16.7-11.3,20.6-20.6c0.3-0.6,0.3-1.3,0-1.9c-3-6.9-7.8-12.7-13.9-17C51.5,12.3,43.8,9.9,36,10z M36,51.1
	c-9.1,0-16.5-7.4-16.5-16.5c0-9.1,7.4-16.5,16.5-16.5s16.5,7.4,16.5,16.5l0,0c0.1,9-7.1,16.4-16.1,16.5C36.2,51.1,36.1,51.1,36,51.1
	z M36,24.8c-5.4,0-9.9,4.4-9.9,9.9c0,5.4,4.4,9.9,9.9,9.9s9.9-4.4,9.9-9.9c0.1-5.4-4.2-9.8-9.5-9.9C36.2,24.8,36.1,24.8,36,24.8z"/>
</svg>
