<svg id="Capa_1" data-name="Capa 1" xmlns="http://www.w3.org/2000/svg" viewBox="0 0 150 150"><defs><style>.cls-1{fill:#fff;}</style></defs><title>ICON</title><path class="cls-1" d="M75,0a75,75,0,1,0,75,75A75,75,0,0,0,75,0ZM68.52,63.37H48.86V72.6h16.6v7.81H48.86V90.88h19.6V99H38.31V55.22H68.52Zm22.63,6.69a22.89,22.89,0,0,0,6.35,2.82A38.88,38.88,0,0,1,105,76q7.1,4.1,7.1,11.28a10.71,10.71,0,0,1-4.33,9q-4.34,3.27-11.88,3.27a23.58,23.58,0,0,1-9.63-1.9,14.59,14.59,0,0,1-6.5-5.24,13.63,13.63,0,0,1-2.18-7.65H88.12c0,2.35.6,4.08,1.82,5.19s3.18,1.67,5.9,1.67A6.83,6.83,0,0,0,100,90.53a3.73,3.73,0,0,0,1.52-3.17,4.35,4.35,0,0,0-1.64-3.61,20.46,20.46,0,0,0-5.76-2.67,56.17,56.17,0,0,1-6.73-2.68q-8.52-4.19-8.51-11.48A10.24,10.24,0,0,1,81,60.5a13.63,13.63,0,0,1,6-4.33,23.23,23.23,0,0,1,8.72-1.55,20.49,20.49,0,0,1,8.47,1.68A13.35,13.35,0,0,1,110,61.1a12.45,12.45,0,0,1,2.08,7.11H101.53a5.29,5.29,0,0,0-1.64-4.15,6.41,6.41,0,0,0-4.44-1.47A7.2,7.2,0,0,0,91,63.83a3.68,3.68,0,0,0,.16,6.23Z"/></svg>