<svg id="Capa_1" data-name="Capa 1" xmlns="http://www.w3.org/2000/svg" viewBox="0 0 192 192"><defs><style>.cls-1{fill:#fff;}</style></defs><title>ICONS</title><path class="cls-1" d="M96-.35a96,96,0,1,0,96,96A96,96,0,0,0,96-.35ZM54,54H138a13.81,13.81,0,0,1,6.66,1.76L96,98.35,47.38,55.8A13.81,13.81,0,0,1,54,54ZM40.06,124V68a14,14,0,0,1,2.17-7.43l35,30.57L41.85,130.7A13.82,13.82,0,0,1,40.06,124ZM138,138H54a13.83,13.83,0,0,1-7.37-2.15l35.77-40,11.26,9.86a3.51,3.51,0,0,0,4.6,0l11.26-9.86,35.77,40A13.83,13.83,0,0,1,138,138Zm14-14a13.93,13.93,0,0,1-1.79,6.73L114.82,91.17l35-30.57A13.88,13.88,0,0,1,151.94,68Z"/></svg>