<svg xmlns="http://www.w3.org/2000/svg" viewBox="0 0 92.9 72.91">
  <defs>
    <style>
      .cls-1 {
        fill: #1d1d1d;
      }
    </style>
  </defs>
  <path id="PERSONAL_LOGO" data-name="PERSONAL LOGO" class="cls-1" d="M-803.2-948.59h-65.414c-14.4.1-24.639,8.342-24.639,21.169v.2c0,14.128,9.248,18.093,23.582,21.753,11.9,3.059,14.334,5.083,14.334,9.048v.2c0,4.171-3.862,6.71-10.266,6.71-8.133,0-14.843-3.353-21.247-8.639l-9.251,11.081a45.28,45.28,0,0,0,30.192,11.384c7.836,0,14.476-2.066,19.1-5.967a29.243,29.243,0,0,0,18.394,5.967c15.046,0,25.212-8.342,25.212-25.618Zm-16.061,46.583c0,8.236-3.662,11.793-9.557,11.793-4.188,0-7.658-1.874-11.072-5.127.07-.779.108-1.574.108-2.394v-.2c0-12.4-8.133-17.587-22.567-21.349-12.313-3.15-15.352-4.763-15.352-9.118v-.448c.537-4.062,4.085-5.114,10.082-5.114h48.358Z" transform="translate(896.1 948.59)"/>
</svg>
