<svg xmlns="http://www.w3.org/2000/svg" viewBox="0 0 155.74 20"><title>separator</title><g id="Capa_2" data-name="Capa 2"><g id="Capa_1-2" data-name="Capa 1"><path d="M154.29,10a1.47,1.47,0,0,0,1.43-1.75,10,10,0,0,0-18.35-3.51,2.26,2.26,0,0,1,.16.26h-.32a10,10,0,0,0-1.34,5,7,7,0,0,1-14,0,10,10,0,0,0-1.34-5h-.32a2.26,2.26,0,0,1,.16-.26,10,10,0,0,0-17,0,2.26,2.26,0,0,1,.16.26h-.32a10,10,0,0,0-1.34,5,7,7,0,0,1-14,0,10,10,0,0,0-1.34-5h-.32a2.26,2.26,0,0,1,.16-.26,10,10,0,0,0-17,0,2.26,2.26,0,0,1,.16.26h-.32a10,10,0,0,0-1.34,5,7,7,0,0,1-14,0,10,10,0,0,0-1.34-5h-.32a2.26,2.26,0,0,1,.16-.26,10,10,0,0,0-17,0,2.26,2.26,0,0,1,.16.26h-.32a10,10,0,0,0-1.34,5,7,7,0,0,1-14,0,10,10,0,0,0-1.34-5h-.32a2.26,2.26,0,0,1,.16-.26A10,10,0,0,0,1.21,5,10.09,10.09,0,0,0,0,8.24,1.49,1.49,0,0,0,1.48,10h0A1.52,1.52,0,0,0,3,8.72,7,7,0,0,1,9.87,3a7,7,0,0,1,7,7,10,10,0,0,0,1.34,5h.32a2.26,2.26,0,0,1-.16.26,10,10,0,0,0,17,0,2.26,2.26,0,0,1-.16-.26h.32a10,10,0,0,0,1.34-5,7,7,0,0,1,14,0,10,10,0,0,0,1.34,5h.32a2.26,2.26,0,0,1-.16.26,10,10,0,0,0,17,0,2.26,2.26,0,0,1-.16-.26h.32a10,10,0,0,0,1.34-5,7,7,0,0,1,14,0,10,10,0,0,0,1.34,5h.32a2.26,2.26,0,0,1-.16.26,10,10,0,0,0,17,0,2.26,2.26,0,0,1-.16-.26h.32a10,10,0,0,0,1.34-5,7,7,0,0,1,14,0,10,10,0,0,0,1.34,5h.32a2.26,2.26,0,0,1-.16.26,10,10,0,0,0,17,0,2.26,2.26,0,0,0,.16-.26,10,10,0,0,0,1.34-5,7,7,0,0,1,13.89-1.26A1.48,1.48,0,0,0,154.2,10Z"/></g></g></svg>