<svg id="Capa_1" data-name="Capa 1" xmlns="http://www.w3.org/2000/svg" xmlns:xlink="http://www.w3.org/1999/xlink" viewBox="0 0 217 217"><defs><style>.cls-1,.cls-4{fill:none;}.cls-2{clip-path:url(#clip-path);}.cls-3{fill:#030104;}.cls-4{stroke:#000;stroke-miterlimit:10;stroke-width:14px;}</style><clipPath id="clip-path"><rect class="cls-1" x="60" y="73" width="97" height="71"/></clipPath></defs><title>social</title><g class="cls-2"><path class="cls-3" d="M108.6,123.72l-12-10.51L62.2,142.66a7,7,0,0,0,4.78,1.9h83.2a7,7,0,0,0,4.77-1.9l-34.36-29.45Zm0,0"/><path class="cls-3" d="M155,77a6.92,6.92,0,0,0-4.77-1.86H67a7,7,0,0,0-4.78,1.89l46.4,39.72Zm0,0"/><path class="cls-3" d="M60,81.23V138.9l33.55-28.5Zm0,0"/><path class="cls-3" d="M123.61,110.4l33.54,28.5V81.23Zm0,0"/></g><circle class="cls-4" cx="108.5" cy="108.5" r="101.5"/></svg>