<svg id="Capa_1" data-name="Capa 1" xmlns="http://www.w3.org/2000/svg" viewBox="0 0 217 217"><defs><style>.cls-1{fill:none;stroke:#000;stroke-miterlimit:10;stroke-width:14px;}</style></defs><title>social</title><path d="M126.88,60.09H90.67A30.18,30.18,0,0,0,60.5,90.27v36.21a30.18,30.18,0,0,0,30.17,30.18h36.21a30.18,30.18,0,0,0,30.18-30.18V90.27a30.18,30.18,0,0,0-30.18-30.18ZM148,126.48a21.15,21.15,0,0,1-21.13,21.12H90.67a21.14,21.14,0,0,1-21.12-21.12V90.27A21.14,21.14,0,0,1,90.67,69.15h36.21A21.15,21.15,0,0,1,148,90.27Zm0,0"/><path d="M108.78,84.23a24.15,24.15,0,1,0,24.14,24.15,24.14,24.14,0,0,0-24.14-24.15Zm0,39.23a15.09,15.09,0,1,1,15.09-15.08,15.11,15.11,0,0,1-15.09,15.08Zm0,0"/><path d="M138,82.42a3.22,3.22,0,1,1-3.22-3.21A3.22,3.22,0,0,1,138,82.42Zm0,0"/><circle class="cls-1" cx="108.5" cy="108.5" r="101.5"/></svg>