<svg id="Capa_1" data-name="Capa 1" xmlns="http://www.w3.org/2000/svg" viewBox="0 0 217 217"><defs><style>.cls-1{fill:none;stroke:#000;stroke-miterlimit:10;stroke-width:14px;}</style></defs><title>social</title><path d="M152.8,111.36v32.48H134v-30.3c0-7.61-2.72-12.81-9.53-12.81-5.21,0-8.3,3.5-9.66,6.89a12.78,12.78,0,0,0-.63,4.59v31.63H95.32s.25-51.32,0-56.64h18.83v8l-.12.18h.12v-.18c2.5-3.85,7-9.36,17-9.36,12.39,0,21.68,8.1,21.68,25.49ZM75.62,59.9C69.18,59.9,65,64.13,65,69.69s4.09,9.79,10.4,9.79h.13c6.57,0,10.65-4.36,10.65-9.79S82.07,59.9,75.62,59.9Zm-9.54,83.94H84.91V87.2H66.08Zm0,0"/><circle class="cls-1" cx="108.5" cy="108.5" r="101.5"/></svg>