<svg id="Capa_1" data-name="Capa 1" xmlns="http://www.w3.org/2000/svg" viewBox="0 0 217 217"><defs><style>.cls-1{fill:none;stroke:#000;stroke-miterlimit:10;stroke-width:14px;}</style></defs><title>social</title><path d="M149.23,86h-25.4V79.65h25.41V86Zm-42.31,25.88a16.67,16.67,0,0,1,2.46,9.24,18.43,18.43,0,0,1-2.81,10.07A17.4,17.4,0,0,1,95,139.27a43.76,43.76,0,0,1-8.91.85H57.67V77H88.14q11.52.18,16.34,6.71a16.08,16.08,0,0,1,2.88,9.64c0,3.86-1,6.94-2.91,9.29a15,15,0,0,1-4.81,3.59,14,14,0,0,1,7.28,5.57Zm-34.7-9.93H85.57a12.59,12.59,0,0,0,6.67-1.57q2.57-1.56,2.56-5.54,0-4.41-3.39-5.82A23.85,23.85,0,0,0,84,88H72.22Zm23.86,18.27c0-3.28-1.34-5.54-4-6.76a15.88,15.88,0,0,0-6.31-1.07H72.22v16.81H85.55a14.8,14.8,0,0,0,6.39-1.1c2.76-1.38,4.14-4,4.14-7.88Zm62.58-10.26a59.65,59.65,0,0,1,.39,9h-32.9q.27,6.81,4.72,9.53a11.89,11.89,0,0,0,6.51,1.7,9.18,9.18,0,0,0,9-5.17h12.06c-.32,2.68-1.77,5.4-4.38,8.16q-6.06,6.6-17,6.6a24.66,24.66,0,0,1-15.91-5.56q-6.89-5.58-6.89-18.1,0-11.76,6.21-18c4.17-4.18,9.54-6.27,16.17-6.27a25.8,25.8,0,0,1,10.63,2.12,18.3,18.3,0,0,1,7.8,6.69,22.39,22.39,0,0,1,3.6,9.35Zm-11.87,1.17a9.86,9.86,0,0,0-3.16-7.14,10.28,10.28,0,0,0-7-2.44,9.36,9.36,0,0,0-7,2.59,12.15,12.15,0,0,0-3.15,7Zm0,0"/><circle class="cls-1" cx="108.5" cy="108.5" r="101.5"/></svg>