<svg xmlns="http://www.w3.org/2000/svg" viewBox="0 0 363.39 303.34"><defs><style>.cls-1{fill:#fff;}</style></defs><title>Mesa de trabajo 25</title><g id="Capa_4" data-name="Capa 4"><path class="cls-1" d="M145.49,182.44c-21,0-38.85-6.3-53.12-18.73C55.19,131.33,54.35,67.84,55,49.15A12.1,12.1,0,0,1,66.64,37.49c2.16-.07,4.43-.11,6.76-.11,13.33,0,39.16,1.27,63.78,9.68,13-21.31,29.49-37.69,36-43.81a12.08,12.08,0,0,1,16.49,0c6.57,6.14,23.06,22.56,36.11,43.92,24.71-8.51,50.68-9.79,64.11-9.79,2.32,0,4.6,0,6.77.11a12.1,12.1,0,0,1,11.66,11.66c.63,18.69-.21,82.18-37.39,114.56-14.27,12.43-32.15,18.73-53.15,18.73Zm96.7-46.34a6.73,6.73,0,0,0-6,3.61A90.31,90.31,0,0,1,217.38,164a.48.48,0,0,0-.12.57.54.54,0,0,0,.52.36c16.76,0,30.8-4.86,41.73-14.38A66.83,66.83,0,0,0,271,137.44a.86.86,0,0,0,.05-.9.8.8,0,0,0-.74-.44Zm-149.11,0a.79.79,0,0,0-.73.44.83.83,0,0,0,.05.9,66.83,66.83,0,0,0,11.44,13.11c10.84,9.44,24.74,14.28,41.32,14.38a.54.54,0,0,0,.52-.36.48.48,0,0,0-.12-.57,90.72,90.72,0,0,1-18.78-24.29,6.73,6.73,0,0,0-6-3.61Zm131.33-44a1.48,1.48,0,0,0-1.07.45l-30.29,30.29a9.66,9.66,0,0,0-2.85,6.88v29.17a2.24,2.24,0,0,0,2.24,2.23,2.15,2.15,0,0,0,1.26-.41c20.69-14.59,31.83-31.82,33.17-51.26a65.72,65.72,0,0,0-1-16.11A1.51,1.51,0,0,0,224.41,92.14Zm-85.89.11A1.52,1.52,0,0,0,137,93.49a66.29,66.29,0,0,0-.93,16c1.34,19.44,12.48,36.67,33.11,51.22a2.26,2.26,0,0,0,3.56-1.85V129.78a9.66,9.66,0,0,0-2.86-6.9l-30.3-30.19A1.46,1.46,0,0,0,138.52,92.25Zm152-37.4c-10.69,0-31.72.89-52.56,6.88a3.43,3.43,0,0,0-2.19,4.62c6.59,15.41,9.44,30.33,8.48,44.35-.11,1.58-.28,3.19-.49,4.78a2.73,2.73,0,0,0,.67,2.18,2.87,2.87,0,0,0,2.16,1H277a5.12,5.12,0,0,0,4.84-3.41c8-22.82,9.21-47.36,9.21-60a.44.44,0,0,0-.43-.42Zm-217.79,0a.43.43,0,0,0-.43.43c0,12.59,1.19,37.14,9.21,60a5.12,5.12,0,0,0,4.84,3.41h29.93a2.9,2.9,0,0,0,2.16-1,2.73,2.73,0,0,0,.66-2.18c-.21-1.58-.37-3.19-.49-4.78-1-14,1.9-29,8.53-44.45A3.44,3.44,0,0,0,125,61.61c-20.7-5.87-41.59-6.76-52.2-6.76ZM181.47,20.2a1.56,1.56,0,0,0-1.1.45c-8.57,8.67-24.48,26.35-34.75,47.4a6.36,6.36,0,0,0,1.28,7.29l34.56,34.44L216,75.24a6.39,6.39,0,0,0,1.27-7.3c-10.28-21-26.15-38.64-34.7-47.28A1.51,1.51,0,0,0,181.47,20.2Z"/><path class="cls-1" d="M54.64,300.87l-8.8-32.54a1.06,1.06,0,0,0-2,0L35,300.87a1,1,0,0,1-1,.78H18.47a1,1,0,0,1-1-.77L0,239.19a1.06,1.06,0,0,1,1-1.35h15.4a1.06,1.06,0,0,1,1,.8l9,35.78a1.06,1.06,0,0,0,2.06,0l7.62-35.7a1,1,0,0,1,1-.84h15.3a1,1,0,0,1,1,.81l8.68,35.88a1.05,1.05,0,0,0,2.05,0l8.44-35.86a1.06,1.06,0,0,1,1-.82h15a1.06,1.06,0,0,1,1,1.35L72.18,300.88a1,1,0,0,1-1,.77H55.66A1.06,1.06,0,0,1,54.64,300.87Z"/><path class="cls-1" d="M108.71,274.16a1.05,1.05,0,0,0-1.06,1.13,17.77,17.77,0,0,0,4.1,10.41,12.69,12.69,0,0,0,10,4.28A14,14,0,0,0,129,288.1a8.53,8.53,0,0,0,3.82-4.52,1.07,1.07,0,0,1,1-.73h15a1,1,0,0,1,1,1.37A27.52,27.52,0,0,1,140,298a29,29,0,0,1-17.5,5.32q-31.65,0-31.64-34.76a40.86,40.86,0,0,1,2.05-13.36,28.82,28.82,0,0,1,6-10.24,25.7,25.7,0,0,1,9.58-6.55,33.82,33.82,0,0,1,12.81-2.15c9.77,0,17.36,3,22.38,9.35q7.31,9.19,7.52,27.45a1.08,1.08,0,0,1-1.07,1.08Zm24.11-10.64a1,1,0,0,0,1.05-1.12,17.1,17.1,0,0,0-1.15-5,13,13,0,0,0-2.89-4.41,11.68,11.68,0,0,0-4.12-2.59,13.84,13.84,0,0,0-4.76-.84,11.81,11.81,0,0,0-8.68,3.69,15.23,15.23,0,0,0-4.06,9.1,1.06,1.06,0,0,0,1,1.21Z"/><path class="cls-1" d="M197.18,301.06l-13-26.71a1.05,1.05,0,0,0-1.71-.27l-6.76,7a1.06,1.06,0,0,0-.3.73V300.6a1,1,0,0,1-1.05,1H159.67a1.05,1.05,0,0,1-1.06-1v-76a1.06,1.06,0,0,1,1.06-1.06h14.74a1.06,1.06,0,0,1,1.05,1.06v34.66a1.06,1.06,0,0,0,1.86.69L196,238.21a1.06,1.06,0,0,1,.8-.37h17.59a1.06,1.06,0,0,1,.79,1.77L196,260.78a1.06,1.06,0,0,0-.15,1.19l19.59,38.14a1.06,1.06,0,0,1-.94,1.54h-16.4A1,1,0,0,1,197.18,301.06Z"/><path class="cls-1" d="M263.56,300.6v-4.55a1,1,0,0,0-1.87-.66q-6.36,8-17.81,7.95a21.87,21.87,0,0,1-8.69-1.69,19.2,19.2,0,0,1-6.75-4.8,22.63,22.63,0,0,1-4.44-7.39,27.15,27.15,0,0,1-1.61-9.6v-41a1.06,1.06,0,0,1,1.06-1.06h14.61a1.07,1.07,0,0,1,1.06,1.06v38.37q0,11.93,10.67,11.93,6.44,0,9.72-4.08a16.16,16.16,0,0,0,3.28-10.44V238.9a1.06,1.06,0,0,1,1-1.06h14.49a1.06,1.06,0,0,1,1.05,1.06v61.7a1,1,0,0,1-1.05,1H264.62A1.05,1.05,0,0,1,263.56,300.6Z"/><path class="cls-1" d="M287.36,300.6v-76a1.06,1.06,0,0,1,1.05-1.06H303a1.06,1.06,0,0,1,1.05,1.06v76a1,1,0,0,1-1.05,1H288.41A1,1,0,0,1,287.36,300.6Z"/><path class="cls-1" d="M348.88,259.63h13.46a1.05,1.05,0,0,1,1.05,1.06v17.1a31.28,31.28,0,0,1-1.48,9.66,22.61,22.61,0,0,1-4.63,8.17,22,22,0,0,1-8,5.64,29,29,0,0,1-11.51,2.08A30.34,30.34,0,0,1,326,301.26a22.27,22.27,0,0,1-8-5.58,21.13,21.13,0,0,1-4.56-8.17,33.52,33.52,0,0,1-1.42-9.85V224.59a1.06,1.06,0,0,1,1.06-1.06h14.35a1.06,1.06,0,0,1,1.06,1.06v12.2a1,1,0,0,0,1.05,1.05h32.89a1.06,1.06,0,0,1,1.05,1.06v9.82a1.06,1.06,0,0,1-1.05,1.06H329.45a1,1,0,0,0-1.05,1.05V276q0,6.11,2.25,9.4t7.4,3.31c3.34,0,5.81-1.08,7.39-3.24s2.38-5.23,2.38-9.21V260.69A1.06,1.06,0,0,1,348.88,259.63Z"/></g></svg>