<svg width="93" height="73" viewBox="0 0 93 73" fill="none" xmlns="http://www.w3.org/2000/svg">
<g clip-path="url(#clip0)">
<path d="M92.9 -3.05176e-05H27.486C13.086 0.0999695 2.84702 8.34198 2.84702 21.169V21.369C2.84702 35.497 12.095 39.462 26.429 43.122C38.329 46.181 40.763 48.205 40.763 52.17V52.37C40.763 56.541 36.901 59.08 30.497 59.08C22.364 59.08 15.654 55.727 9.25003 50.441L-0.00100708 61.522C8.32361 68.8954 19.0705 72.9476 30.191 72.906C38.027 72.906 44.667 70.84 49.291 66.939C54.5682 70.9563 61.0544 73.0604 67.685 72.906C82.731 72.906 92.897 64.564 92.897 47.288L92.9 -3.05176e-05ZM76.839 46.583C76.839 54.819 73.177 58.376 67.282 58.376C63.094 58.376 59.624 56.502 56.21 53.249C56.28 52.47 56.318 51.675 56.318 50.855V50.655C56.318 38.255 48.185 33.068 33.751 29.306C21.438 26.156 18.399 24.543 18.399 20.188V19.74C18.936 15.678 22.484 14.626 28.481 14.626H76.839V46.583Z" fill="white"/>
</g>
<defs>
<clipPath id="clip0">
<rect width="92.9" height="72.91" fill="white"/>
</clipPath>
</defs>
</svg>
